<?xml version="1.0" encoding="UTF-8"?>
<!DOCTYPE svg PUBLIC "-//W3C//DTD SVG 1.1//EN" "http://www.w3.org/Graphics/SVG/1.1/DTD/svg11.dtd">
<svg xmlns="http://www.w3.org/2000/svg" version="1.1" width="501px" height="498px" style="shape-rendering:geometricPrecision; text-rendering:geometricPrecision; image-rendering:optimizeQuality; fill-rule:evenodd; clip-rule:evenodd" xmlns:xlink="http://www.w3.org/1999/xlink">
<g><path style="opacity:0.004" fill="#000000" d="M 446.5,1.5 C 447.833,2.16667 447.833,2.16667 446.5,1.5 Z"/></g>
<g><path style="opacity:0.004" fill="#fefffe" d="M -0.5,18.5 C 0.833333,19.1667 0.833333,19.1667 -0.5,18.5 Z"/></g>
<g><path style="opacity:0.004" fill="#000000" d="M 176.5,27.5 C 177.833,28.1667 177.833,28.1667 176.5,27.5 Z"/></g>
<g><path style="opacity:0.004" fill="#000000" d="M 326.5,30.5 C 327.833,31.1667 327.833,31.1667 326.5,30.5 Z"/></g>
<g><path style="opacity:0.004" fill="#000000" d="M 284.5,45.5 C 285.833,46.1667 285.833,46.1667 284.5,45.5 Z"/></g>
<g><path style="opacity:0.004" fill="#000000" d="M 293.5,47.5 C 294.833,48.1667 294.833,48.1667 293.5,47.5 Z"/></g>
<g><path style="opacity:0.004" fill="#000000" d="M 125.5,50.5 C 126.833,51.1667 126.833,51.1667 125.5,50.5 Z"/></g>
<g><path style="opacity:0.004" fill="#000000" d="M 212.5,54.5 C 213.833,55.1667 213.833,55.1667 212.5,54.5 Z"/></g>
<g><path style="opacity:0.004" fill="#000000" d="M 215.5,59.5 C 216.833,60.1667 216.833,60.1667 215.5,59.5 Z"/></g>
<g><path style="opacity:0.004" fill="#000000" d="M 113.5,64.5 C 114.833,65.1667 114.833,65.1667 113.5,64.5 Z"/></g>
<g><path style="opacity:0.004" fill="#000000" d="M 425.5,69.5 C 426.833,70.1667 426.833,70.1667 425.5,69.5 Z"/></g>
<g><path style="opacity:0.004" fill="#000000" d="M 11.5,74.5 C 12.8333,75.1667 12.8333,75.1667 11.5,74.5 Z"/></g>
<g><path style="opacity:0.004" fill="#000000" d="M 245.5,88.5 C 246.833,89.1667 246.833,89.1667 245.5,88.5 Z"/></g>
<g><path style="opacity:0.004" fill="#000000" d="M 386.5,88.5 C 387.833,89.1667 387.833,89.1667 386.5,88.5 Z"/></g>
<g><path style="opacity:0.004" fill="#000000" d="M 485.5,90.5 C 486.833,91.1667 486.833,91.1667 485.5,90.5 Z"/></g>
<g><path style="opacity:0.004" fill="#000000" d="M 68.5,92.5 C 69.8333,93.1667 69.8333,93.1667 68.5,92.5 Z"/></g>
<g><path style="opacity:0.004" fill="#000000" d="M 179.5,97.5 C 180.833,98.1667 180.833,98.1667 179.5,97.5 Z"/></g>
<g><path style="opacity:0.004" fill="#000000" d="M 137.5,106.5 C 138.833,107.167 138.833,107.167 137.5,106.5 Z"/></g>
<g><path style="opacity:0.172" fill="#e2dfdf" d="M 271.5,108.5 C 254.905,109.027 238.238,110.361 221.5,112.5C 227.188,110.396 233.188,109.23 239.5,109C 250.161,108.5 260.828,108.333 271.5,108.5 Z"/></g>
<g><path style="opacity:0.982" fill="#fbfbfb" d="M 271.5,108.5 C 274.61,109.088 277.61,109.755 280.5,110.5C 282.663,111.469 284.996,112.302 287.5,113C 283.843,112.892 280.177,112.892 276.5,113C 278.788,113.822 281.122,114.489 283.5,115C 281.714,115.196 280.381,116.029 279.5,117.5C 281.672,117.676 284.005,117.843 286.5,118C 286.833,118.333 287.167,118.667 287.5,119C 286.692,119.308 286.025,119.808 285.5,120.5C 287.396,121.466 289.396,121.799 291.5,121.5C 291.351,120.448 291.517,119.448 292,118.5C 294.803,120.628 297.636,122.794 300.5,125C 293.585,124.577 286.585,124.41 279.5,124.5C 278.661,129.668 276.161,130.668 272,127.5C 271.517,126.552 271.351,125.552 271.5,124.5C 268.15,124.335 264.817,124.502 261.5,125C 261.112,128.706 259.112,131.706 255.5,134C 255.995,136.009 255.995,138.176 255.5,140.5C 257.199,140.66 258.866,140.494 260.5,140C 259.294,138.982 259.627,138.482 261.5,138.5C 263.974,139.269 266.474,139.936 269,140.5C 270.447,140.055 271.78,139.388 273,138.5C 274.762,138.944 274.595,139.444 272.5,140C 276.921,140.417 281.254,141.25 285.5,142.5C 286.5,142.167 287.5,141.833 288.5,141.5C 287.54,140.188 287.706,138.854 289,137.5C 289.5,138 290,138.5 290.5,139C 289.167,140.667 289.167,142.333 290.5,144C 285.324,143.868 280.324,144.035 275.5,144.5C 274.833,144.5 274.5,144.167 274.5,143.5C 237.336,142.667 200.002,142.167 162.5,142C 163.381,141.292 164.047,140.458 164.5,139.5C 172.379,134.734 180.046,129.734 187.5,124.5C 197.978,118.339 209.311,114.339 221.5,112.5C 238.238,110.361 254.905,109.027 271.5,108.5 Z"/></g>
<g><path style="opacity:0.004" fill="#000000" d="M 296.5,109.5 C 297.833,110.167 297.833,110.167 296.5,109.5 Z"/></g>
<g><path style="opacity:0.004" fill="#000000" d="M 299.5,110.5 C 300.833,111.167 300.833,111.167 299.5,110.5 Z"/></g>
<g><path style="opacity:1" fill="#f8f8f5" d="M 280.5,110.5 C 296.58,112.526 311.58,117.526 325.5,125.5C 328.504,128.43 332.004,130.763 336,132.5C 336.495,134.473 336.662,136.473 336.5,138.5C 337.93,138.421 339.264,138.754 340.5,139.5C 341.167,138.833 341.833,138.167 342.5,137.5C 344.679,138.757 346.679,140.257 348.5,142C 346.604,143.808 346.104,145.975 347,148.5C 347.333,147.167 347.667,145.833 348,144.5C 348.333,145.167 348.667,145.833 349,146.5C 349.249,145.376 349.749,144.376 350.5,143.5C 356.187,148.855 361.854,154.188 367.5,159.5C 369.423,162.603 371.59,165.603 374,168.5C 374.982,169.759 375.315,171.092 375,172.5C 373.647,171.315 372.48,169.981 371.5,168.5C 371.167,168.833 370.833,169.167 370.5,169.5C 373.153,174.189 372.653,174.523 369,170.5C 368,171.5 367,172.5 366,173.5C 366.24,171.533 367.073,169.7 368.5,168C 367.465,166.726 366.298,165.56 365,164.5C 363.697,165.112 362.53,165.446 361.5,165.5C 362.351,168.612 363.517,168.946 365,166.5C 365.75,167.126 366.584,167.626 367.5,168C 365.395,169.193 363.728,170.86 362.5,173C 366.167,176.363 365.167,177.363 359.5,176C 359.833,175.667 360.167,175.333 360.5,175C 358.833,174.667 357.167,174.333 355.5,174C 359.375,173.014 359.375,171.847 355.5,170.5C 354.131,172.124 352.464,172.624 350.5,172C 353.464,171.16 353.797,170.16 351.5,169C 352.167,168.667 352.833,168.333 353.5,168C 352.167,167.333 350.833,167.333 349.5,168C 349.833,168.333 350.167,168.667 350.5,169C 348.197,171.503 345.531,172.17 342.5,171C 343.458,172.147 343.125,173.147 341.5,174C 343.647,177.139 345.647,180.305 347.5,183.5C 339.994,174.829 331.661,166.995 322.5,160C 313.33,154.415 303.663,149.915 293.5,146.5C 292.584,146.543 291.917,146.876 291.5,147.5C 286.365,145.643 281.031,144.643 275.5,144.5C 280.324,144.035 285.324,143.868 290.5,144C 289.167,142.333 289.167,140.667 290.5,139C 290,138.5 289.5,138 289,137.5C 287.706,138.854 287.54,140.188 288.5,141.5C 287.5,141.833 286.5,142.167 285.5,142.5C 281.254,141.25 276.921,140.417 272.5,140C 274.595,139.444 274.762,138.944 273,138.5C 271.78,139.388 270.447,140.055 269,140.5C 266.474,139.936 263.974,139.269 261.5,138.5C 259.627,138.482 259.294,138.982 260.5,140C 258.866,140.494 257.199,140.66 255.5,140.5C 255.995,138.176 255.995,136.009 255.5,134C 259.112,131.706 261.112,128.706 261.5,125C 264.817,124.502 268.15,124.335 271.5,124.5C 271.351,125.552 271.517,126.552 272,127.5C 276.161,130.668 278.661,129.668 279.5,124.5C 286.585,124.41 293.585,124.577 300.5,125C 297.636,122.794 294.803,120.628 292,118.5C 291.517,119.448 291.351,120.448 291.5,121.5C 289.396,121.799 287.396,121.466 285.5,120.5C 286.025,119.808 286.692,119.308 287.5,119C 287.167,118.667 286.833,118.333 286.5,118C 284.005,117.843 281.672,117.676 279.5,117.5C 280.381,116.029 281.714,115.196 283.5,115C 281.122,114.489 278.788,113.822 276.5,113C 280.177,112.892 283.843,112.892 287.5,113C 284.996,112.302 282.663,111.469 280.5,110.5 Z"/></g>
<g><path style="opacity:0.004" fill="#000000" d="M 185.5,119.5 C 186.833,120.167 186.833,120.167 185.5,119.5 Z"/></g>
<g><path style="opacity:0.22" fill="#c5c2c2" d="M 187.5,124.5 C 180.046,129.734 172.379,134.734 164.5,139.5C 170.963,132.761 178.63,127.761 187.5,124.5 Z"/></g>
<g><path style="opacity:0.997" fill="#e2dfda" d="M 325.5,125.5 C 342.18,133.513 356.18,144.846 367.5,159.5C 361.854,154.188 356.187,148.855 350.5,143.5C 349.749,144.376 349.249,145.376 349,146.5C 348.667,145.833 348.333,145.167 348,144.5C 347.667,145.833 347.333,147.167 347,148.5C 346.104,145.975 346.604,143.808 348.5,142C 346.679,140.257 344.679,138.757 342.5,137.5C 341.833,138.167 341.167,138.833 340.5,139.5C 339.264,138.754 337.93,138.421 336.5,138.5C 336.662,136.473 336.495,134.473 336,132.5C 332.004,130.763 328.504,128.43 325.5,125.5 Z"/></g>
<g><path style="opacity:0.134" fill="#d8d4d4" d="M 164.5,139.5 C 164.047,140.458 163.381,141.292 162.5,142C 200.002,142.167 237.336,142.667 274.5,143.5C 238.665,144.489 202.665,144.822 166.5,144.5C 164.275,144.695 162.609,143.861 161.5,142C 161.748,140.251 162.748,139.418 164.5,139.5 Z"/></g>
<g><path style="opacity:0.004" fill="#000000" d="M 455.5,148.5 C 456.833,149.167 456.833,149.167 455.5,148.5 Z"/></g>
<g><path style="opacity:0.004" fill="#000000" d="M 452.5,151.5 C 453.833,152.167 453.833,152.167 452.5,151.5 Z"/></g>
<g><path style="opacity:0.218" fill="#d6d0d0" d="M 287.5,157.5 C 287.083,158.124 286.416,158.457 285.5,158.5C 281.204,157.474 276.871,156.641 272.5,156C 231.5,155.333 190.5,155.333 149.5,156C 142.204,163.794 135.87,172.294 130.5,181.5C 164.16,182.5 197.827,182.833 231.5,182.5C 229.5,183.167 227.5,183.833 225.5,184.5C 193.79,184.158 161.79,183.991 129.5,184C 128.483,182.951 128.316,181.784 129,180.5C 134.733,171.431 141.233,162.931 148.5,155C 187.787,153.357 227.12,153.024 266.5,154C 273.659,154.332 280.659,155.499 287.5,157.5 Z"/></g>
<g><path style="opacity:0.004" fill="#000000" d="M 293.5,155.5 C 294.833,156.167 294.833,156.167 293.5,155.5 Z"/></g>
<g><path style="opacity:1" fill="#fafaf8" d="M 287.5,157.5 C 288.167,157.5 288.5,157.833 288.5,158.5C 294.741,161.621 301.075,164.787 307.5,168C 306.167,168.667 304.833,169.333 303.5,170C 303.342,171.587 304.009,173.087 305.5,174.5C 300.6,177.806 299.266,177.139 301.5,172.5C 300.088,171.194 298.421,170.36 296.5,170C 296.833,169.667 297.167,169.333 297.5,169C 296.119,167.375 294.452,166.208 292.5,165.5C 283.779,165.686 275.113,165.686 266.5,165.5C 262.8,165.022 259.8,166.188 257.5,169C 257.905,169.945 258.572,170.612 259.5,171C 255.624,171.289 252.79,173.122 251,176.5C 250.111,175.112 249.611,175.278 249.5,177C 249.905,177.945 250.572,178.612 251.5,179C 251.167,179.333 250.833,179.667 250.5,180C 251.833,180.667 253.167,181.333 254.5,182C 253.333,182.5 252.5,183.333 252,184.5C 251.086,183.346 250.253,183.513 249.5,185C 250.865,186.682 252.365,186.849 254,185.5C 254.692,186.025 255.192,186.692 255.5,187.5C 261.138,188.33 266.804,188.83 272.5,189C 277.441,191.236 282.441,192.069 287.5,191.5C 288.795,192.098 290.128,192.598 291.5,193C 291.974,194.729 292.974,195.895 294.5,196.5C 294.414,197.496 294.748,198.329 295.5,199C 292.678,199.428 290.012,198.928 287.5,197.5C 284.28,195.021 280.613,193.188 276.5,192C 266.591,190.17 256.591,189.004 246.5,188.5C 243.053,182.96 238.053,180.96 231.5,182.5C 197.827,182.833 164.16,182.5 130.5,181.5C 135.87,172.294 142.204,163.794 149.5,156C 190.5,155.333 231.5,155.333 272.5,156C 276.871,156.641 281.204,157.474 285.5,158.5C 286.416,158.457 287.083,158.124 287.5,157.5 Z"/></g>
<g><path style="opacity:0.004" fill="#000000" d="M 305.5,156.5 C 306.833,157.167 306.833,157.167 305.5,156.5 Z"/></g>
<g><path style="opacity:0.004" fill="#000000" d="M 497.5,158.5 C 498.833,159.167 498.833,159.167 497.5,158.5 Z"/></g>
<g><path style="opacity:1" fill="#f6f7f2" d="M 305.5,174.5 C 305.393,176.379 305.893,176.712 307,175.5C 307.401,177.521 308.568,178.855 310.5,179.5C 311.386,178.675 311.719,177.675 311.5,176.5C 314.05,176.561 315.55,177.894 316,180.5C 316.333,179.833 316.667,179.167 317,178.5C 317.95,181.892 320.117,183.059 323.5,182C 322.154,180.358 322.487,179.691 324.5,180C 327.703,183.371 331.036,186.538 334.5,189.5C 336.422,191.895 337.589,194.562 338,197.5C 335.354,194.02 332.521,190.686 329.5,187.5C 327.851,188.706 326.351,190.039 325,191.5C 324.667,191.167 324.333,190.833 324,190.5C 322.559,191.26 321.059,191.926 319.5,192.5C 317.767,190.158 315.933,187.824 314,185.5C 313.355,186.646 312.522,187.646 311.5,188.5C 311.938,189.506 312.604,189.506 313.5,188.5C 314.386,189.325 314.719,190.325 314.5,191.5C 310.963,191.47 308.296,192.97 306.5,196C 304.888,196.72 303.388,196.554 302,195.5C 301.667,197.167 301.333,198.833 301,200.5C 300,200.167 299,199.833 298,199.5C 297.517,198.552 297.351,197.552 297.5,196.5C 296.5,196.5 295.5,196.5 294.5,196.5C 292.974,195.895 291.974,194.729 291.5,193C 290.128,192.598 288.795,192.098 287.5,191.5C 282.441,192.069 277.441,191.236 272.5,189C 266.804,188.83 261.138,188.33 255.5,187.5C 255.192,186.692 254.692,186.025 254,185.5C 252.365,186.849 250.865,186.682 249.5,185C 250.253,183.513 251.086,183.346 252,184.5C 252.5,183.333 253.333,182.5 254.5,182C 253.167,181.333 251.833,180.667 250.5,180C 250.833,179.667 251.167,179.333 251.5,179C 250.572,178.612 249.905,177.945 249.5,177C 249.611,175.278 250.111,175.112 251,176.5C 252.79,173.122 255.624,171.289 259.5,171C 258.572,170.612 257.905,169.945 257.5,169C 259.8,166.188 262.8,165.022 266.5,165.5C 275.113,165.686 283.779,165.686 292.5,165.5C 294.452,166.208 296.119,167.375 297.5,169C 297.167,169.333 296.833,169.667 296.5,170C 298.421,170.36 300.088,171.194 301.5,172.5C 299.266,177.139 300.6,177.806 305.5,174.5 Z"/></g>
<g><path style="opacity:1" fill="#efefeb" d="M 367.5,159.5 C 369.129,160.625 370.629,161.959 372,163.5C 374.358,166.222 376.191,169.222 377.5,172.5C 382.834,181.835 387.667,191.501 392,201.5C 393.974,207.062 395.474,212.729 396.5,218.5C 395.814,217.152 394.814,215.985 393.5,215C 393.833,214.667 394.167,214.333 394.5,214C 393.175,214.148 392.008,213.982 391,213.5C 390.567,211.336 391.067,209.336 392.5,207.5C 392.147,205.269 391.314,203.269 390,201.5C 389.692,202.308 389.192,202.975 388.5,203.5C 387.08,200.823 385.913,198.489 385,196.5C 384.333,197.167 383.667,197.833 383,198.5C 382.612,197.572 381.945,196.905 381,196.5C 372.38,199.742 372.547,202.242 381.5,204C 380.809,205.067 380.309,206.234 380,207.5C 379.001,203.763 377.668,203.763 376,207.5C 375.217,209.433 375.717,210.933 377.5,212C 376.5,212.333 375.5,212.667 374.5,213C 375.167,214.667 375.833,216.333 376.5,218C 375.594,219.699 375.261,221.533 375.5,223.5C 378.926,223.35 379.259,224.516 376.5,227C 372.75,226.942 372.417,228.609 375.5,232C 375.201,233.32 375.034,234.82 375,236.5C 373.488,235.743 372.154,234.743 371,233.5C 370.802,235.382 370.302,237.048 369.5,238.5C 366.851,218.205 359.518,199.871 347.5,183.5C 345.647,180.305 343.647,177.139 341.5,174C 343.125,173.147 343.458,172.147 342.5,171C 345.531,172.17 348.197,171.503 350.5,169C 350.167,168.667 349.833,168.333 349.5,168C 350.833,167.333 352.167,167.333 353.5,168C 352.833,168.333 352.167,168.667 351.5,169C 353.797,170.16 353.464,171.16 350.5,172C 352.464,172.624 354.131,172.124 355.5,170.5C 359.375,171.847 359.375,173.014 355.5,174C 357.167,174.333 358.833,174.667 360.5,175C 360.167,175.333 359.833,175.667 359.5,176C 365.167,177.363 366.167,176.363 362.5,173C 363.728,170.86 365.395,169.193 367.5,168C 366.584,167.626 365.75,167.126 365,166.5C 363.517,168.946 362.351,168.612 361.5,165.5C 362.53,165.446 363.697,165.112 365,164.5C 366.298,165.56 367.465,166.726 368.5,168C 367.073,169.7 366.24,171.533 366,173.5C 367,172.5 368,171.5 369,170.5C 372.653,174.523 373.153,174.189 370.5,169.5C 370.833,169.167 371.167,168.833 371.5,168.5C 372.48,169.981 373.647,171.315 375,172.5C 375.315,171.092 374.982,169.759 374,168.5C 371.59,165.603 369.423,162.603 367.5,159.5 Z"/></g>
<g><path style="opacity:0.977" fill="#ebe9e6" d="M 288.5,158.5 C 307.287,163.88 322.62,174.214 334.5,189.5C 331.036,186.538 327.703,183.371 324.5,180C 322.487,179.691 322.154,180.358 323.5,182C 320.117,183.059 317.95,181.892 317,178.5C 316.667,179.167 316.333,179.833 316,180.5C 315.55,177.894 314.05,176.561 311.5,176.5C 311.719,177.675 311.386,178.675 310.5,179.5C 308.568,178.855 307.401,177.521 307,175.5C 305.893,176.712 305.393,176.379 305.5,174.5C 304.009,173.087 303.342,171.587 303.5,170C 304.833,169.333 306.167,168.667 307.5,168C 301.075,164.787 294.741,161.621 288.5,158.5 Z"/></g>
<g><path style="opacity:0.004" fill="#000000" d="M 110.5,172.5 C 111.833,173.167 111.833,173.167 110.5,172.5 Z"/></g>
<g><path style="opacity:0.004" fill="#000000" d="M 398.5,172.5 C 399.833,173.167 399.833,173.167 398.5,172.5 Z"/></g>
<g><path style="opacity:0.004" fill="#000000" d="M 458.5,180.5 C 459.833,181.167 459.833,181.167 458.5,180.5 Z"/></g>
<g><path style="opacity:0.063" fill="#cdb9b7" d="M 231.5,182.5 C 238.053,180.96 243.053,182.96 246.5,188.5C 256.591,189.004 266.591,190.17 276.5,192C 280.613,193.188 284.28,195.021 287.5,197.5C 274.74,192.177 261.407,190.011 247.5,191C 244.419,188.262 241.252,185.762 238,183.5C 234.201,184.291 230.035,184.624 225.5,184.5C 227.5,183.833 229.5,183.167 231.5,182.5 Z"/></g>
<g><path style="opacity:0.204" fill="#ccc7c3" d="M 291.5,147.5 C 291.917,146.876 292.584,146.543 293.5,146.5C 303.663,149.915 313.33,154.415 322.5,160C 331.661,166.995 339.994,174.829 347.5,183.5C 359.518,199.871 366.851,218.205 369.5,238.5C 370.637,247.422 370.804,256.422 370,265.5C 369.462,270.781 368.295,275.781 366.5,280.5C 376.284,227.633 358.951,186.467 314.5,157C 307.03,153.262 299.363,150.095 291.5,147.5 Z"/></g>
<g><path style="opacity:0.273" fill="#dad4d5" d="M 223.5,196.5 C 222.833,196.833 222.167,197.167 221.5,197.5C 221.5,196.5 221.5,195.5 221.5,194.5C 188.61,193.852 155.944,194.518 123.5,196.5C 123.5,195.833 123.167,195.5 122.5,195.5C 122.953,194.542 123.619,193.708 124.5,193C 156.5,192.333 188.5,192.333 220.5,193C 222.056,193.72 223.056,194.887 223.5,196.5 Z"/></g>
<g><path style="opacity:0.99" fill="#fbfbfa" d="M 221.5,197.5 C 221.5,200.167 221.5,202.833 221.5,205.5C 187.996,205.832 154.662,205.498 121.5,204.5C 122.167,201.833 122.833,199.167 123.5,196.5C 155.944,194.518 188.61,193.852 221.5,194.5C 221.5,195.5 221.5,196.5 221.5,197.5 Z"/></g>
<g><path style="opacity:1" fill="#f0f0eb" d="M 334.5,189.5 C 341.175,195.518 345.841,202.851 348.5,211.5C 352.249,221.496 354.582,231.829 355.5,242.5C 353.408,239.899 351.741,236.399 350.5,232C 351.14,229.943 350.973,227.777 350,225.5C 349.027,227.392 348.36,229.392 348,231.5C 348.859,226.674 348.026,222.34 345.5,218.5C 344.897,220.452 345.23,222.452 346.5,224.5C 345.559,224.489 344.892,224.989 344.5,226C 345.017,228.077 345.684,230.077 346.5,232C 343.57,233.659 340.57,233.992 337.5,233C 339.981,236.209 339.147,237.043 335,235.5C 333.333,236.5 331.667,237.5 330,238.5C 328.605,238.22 327.438,237.553 326.5,236.5C 331.328,234.912 331.495,233.245 327,231.5C 326.331,234.028 325.498,234.028 324.5,231.5C 325.326,230.549 325.492,229.549 325,228.5C 323.837,230.285 323.17,232.285 323,234.5C 322.333,233.833 321.667,233.167 321,232.5C 320.879,234.727 320.046,236.56 318.5,238C 319.645,244.752 319.811,251.586 319,258.5C 318.826,253.649 318.326,248.982 317.5,244.5C 317.226,233.845 314.059,224.178 308,215.5C 306.465,212.706 304.298,210.706 301.5,209.5C 297.153,205.155 292.486,201.155 287.5,197.5C 290.012,198.928 292.678,199.428 295.5,199C 294.748,198.329 294.414,197.496 294.5,196.5C 295.5,196.5 296.5,196.5 297.5,196.5C 297.351,197.552 297.517,198.552 298,199.5C 299,199.833 300,200.167 301,200.5C 301.333,198.833 301.667,197.167 302,195.5C 303.388,196.554 304.888,196.72 306.5,196C 308.296,192.97 310.963,191.47 314.5,191.5C 314.719,190.325 314.386,189.325 313.5,188.5C 312.604,189.506 311.938,189.506 311.5,188.5C 312.522,187.646 313.355,186.646 314,185.5C 315.933,187.824 317.767,190.158 319.5,192.5C 321.059,191.926 322.559,191.26 324,190.5C 324.333,190.833 324.667,191.167 325,191.5C 326.351,190.039 327.851,188.706 329.5,187.5C 332.521,190.686 335.354,194.02 338,197.5C 337.589,194.562 336.422,191.895 334.5,189.5 Z"/></g>
<g><path style="opacity:0.004" fill="#000000" d="M 110.5,206.5 C 111.833,207.167 111.833,207.167 110.5,206.5 Z"/></g>
<g><path style="opacity:0.114" fill="#cabcbd" d="M 122.5,195.5 C 123.167,195.5 123.5,195.833 123.5,196.5C 122.833,199.167 122.167,201.833 121.5,204.5C 120.957,204.56 120.624,204.893 120.5,205.5C 154.331,206.83 187.998,206.83 221.5,205.5C 221.5,202.833 221.5,200.167 221.5,197.5C 222.167,197.167 222.833,196.833 223.5,196.5C 223.665,199.518 223.498,202.518 223,205.5C 222.3,207.032 221.134,208.032 219.5,208.5C 187.84,207.884 156.007,207.884 124,208.5C 121.055,209.056 119.555,207.89 119.5,205C 120.208,201.71 121.208,198.544 122.5,195.5 Z"/></g>
<g><path style="opacity:0.581" fill="#e8dedf" d="M 121.5,204.5 C 154.662,205.498 187.996,205.832 221.5,205.5C 187.998,206.83 154.331,206.83 120.5,205.5C 120.624,204.893 120.957,204.56 121.5,204.5 Z"/></g>
<g><path style="opacity:0.004" fill="#000000" d="M 86.5,216.5 C 87.8333,217.167 87.8333,217.167 86.5,216.5 Z"/></g>
<g><path style="opacity:0.088" fill="#e1e0e0" d="M 223.5,220.5 C 222.833,220.5 222.167,220.5 221.5,220.5C 221.586,219.504 221.252,218.671 220.5,218C 186.167,217.333 151.833,217.333 117.5,218C 116.956,218.717 116.289,219.217 115.5,219.5C 115.281,218.325 115.614,217.325 116.5,216.5C 118.608,215.898 120.775,215.565 123,215.5C 140.96,215.915 158.96,215.915 177,215.5C 191.5,215.667 206,215.833 220.5,216C 221.883,217.271 222.883,218.771 223.5,220.5 Z"/></g>
<g><path style="opacity:1" fill="#e9e9e4" d="M 396.5,218.5 C 399.937,229.435 401.27,240.768 400.5,252.5C 401.196,265.4 399.862,278.067 396.5,290.5C 395.876,290.083 395.543,289.416 395.5,288.5C 398.242,273.974 399.575,259.307 399.5,244.5C 396.593,244.575 393.927,245.409 391.5,247C 392.022,247.561 392.355,248.228 392.5,249C 392.236,251.728 391.236,254.061 389.5,256C 388.5,256.667 387.5,256.667 386.5,256C 387.696,255.346 387.696,254.846 386.5,254.5C 381.396,256.121 380.73,255.455 384.5,252.5C 381.824,251.783 379.49,252.616 377.5,255C 379.743,255.607 381.41,256.94 382.5,259C 381.166,261.386 379.833,263.72 378.5,266C 380.246,266.471 381.913,267.138 383.5,268C 380.872,270.915 378.205,270.748 375.5,267.5C 375.709,266.914 376.043,266.414 376.5,266C 375.167,265.333 373.833,265.333 372.5,266C 372.957,266.414 373.291,266.914 373.5,267.5C 370.121,272.241 369.788,276.407 372.5,280C 371.615,282.157 369.948,282.99 367.5,282.5C 366.825,286.357 365.658,290.023 364,293.5C 364.701,289.204 365.535,284.871 366.5,280.5C 368.295,275.781 369.462,270.781 370,265.5C 370.804,256.422 370.637,247.422 369.5,238.5C 370.302,237.048 370.802,235.382 371,233.5C 372.154,234.743 373.488,235.743 375,236.5C 375.034,234.82 375.201,233.32 375.5,232C 372.417,228.609 372.75,226.942 376.5,227C 379.259,224.516 378.926,223.35 375.5,223.5C 375.261,221.533 375.594,219.699 376.5,218C 375.833,216.333 375.167,214.667 374.5,213C 375.5,212.667 376.5,212.333 377.5,212C 375.717,210.933 375.217,209.433 376,207.5C 377.668,203.763 379.001,203.763 380,207.5C 380.309,206.234 380.809,205.067 381.5,204C 372.547,202.242 372.38,199.742 381,196.5C 381.945,196.905 382.612,197.572 383,198.5C 383.667,197.833 384.333,197.167 385,196.5C 385.913,198.489 387.08,200.823 388.5,203.5C 389.192,202.975 389.692,202.308 390,201.5C 391.314,203.269 392.147,205.269 392.5,207.5C 391.067,209.336 390.567,211.336 391,213.5C 392.008,213.982 393.175,214.148 394.5,214C 394.167,214.333 393.833,214.667 393.5,215C 394.814,215.985 395.814,217.152 396.5,218.5 Z"/></g>
<g><path style="opacity:1" fill="#f8f9f7" d="M 221.5,220.5 C 221.5,223.833 221.5,227.167 221.5,230.5C 186.167,230.5 150.833,230.5 115.5,230.5C 115.507,227.962 115.841,225.462 116.5,223C 116.316,221.624 115.649,220.791 114.5,220.5C 114.5,219.833 114.833,219.5 115.5,219.5C 116.289,219.217 116.956,218.717 117.5,218C 151.833,217.333 186.167,217.333 220.5,218C 221.252,218.671 221.586,219.504 221.5,220.5 Z"/></g>
<g><path style="opacity:0.2" fill="#bab5b2" d="M 301.5,209.5 C 304.298,210.706 306.465,212.706 308,215.5C 314.059,224.178 317.226,233.845 317.5,244.5C 319.274,265.191 312.607,282.525 297.5,296.5C 296.833,296.5 296.167,296.5 295.5,296.5C 318.714,273.66 322.881,247.66 308,218.5C 305.824,215.471 303.657,212.471 301.5,209.5 Z"/></g>
<g><path style="opacity:0.153" fill="#c0babb" d="M 114.5,220.5 C 115.649,220.791 116.316,221.624 116.5,223C 115.841,225.462 115.507,227.962 115.5,230.5C 150.833,230.5 186.167,230.5 221.5,230.5C 221.5,227.167 221.5,223.833 221.5,220.5C 222.167,220.5 222.833,220.5 223.5,220.5C 223.751,223.909 223.417,227.242 222.5,230.5C 220.39,231.891 218.057,232.558 215.5,232.5C 182.18,232.222 148.847,232.055 115.5,232C 114.196,231.196 113.529,230.029 113.5,228.5C 114.269,225.885 114.603,223.219 114.5,220.5 Z"/></g>
<g><path style="opacity:0.004" fill="#000000" d="M 296.5,237.5 C 297.833,238.167 297.833,238.167 296.5,237.5 Z"/></g>
<g><path style="opacity:0.004" fill="#000000" d="M 362.5,240.5 C 363.833,241.167 363.833,241.167 362.5,240.5 Z"/></g>
<g><path style="opacity:1" fill="#eaebe6" d="M 355.5,242.5 C 356.604,251.008 356.604,259.675 355.5,268.5C 355.839,261.288 355.339,253.955 354,246.5C 352.38,248.241 350.88,250.075 349.5,252C 352.276,253.779 351.943,254.779 348.5,255C 351.907,256.127 351.574,257.46 347.5,259C 349.982,259.677 351.815,258.844 353,256.5C 353.49,257.793 353.657,259.127 353.5,260.5C 349.865,260.656 349.532,261.822 352.5,264C 351.004,264.507 349.837,264.007 349,262.5C 347.867,264.211 346.367,264.711 344.5,264C 346.405,263.174 346.739,262.007 345.5,260.5C 344.158,261.902 343.324,261.569 343,259.5C 342.64,262.428 341.307,263.094 339,261.5C 337.073,262.861 334.906,263.694 332.5,264C 335.54,264.32 338.54,264.32 341.5,264C 340.833,264.667 340.167,265.333 339.5,266C 340.685,267.353 342.019,268.52 343.5,269.5C 341.242,269.242 338.909,269.242 336.5,269.5C 338.401,270.545 340.067,271.878 341.5,273.5C 341,273.833 340.5,274.167 340,274.5C 338.662,273.494 337.329,272.494 336,271.5C 335.503,274.146 335.336,276.813 335.5,279.5C 330.026,277.905 324.693,278.238 319.5,280.5C 319.089,279.738 318.923,278.738 319,277.5C 317.215,281.688 315.715,286.021 314.5,290.5C 312.833,291.667 311.167,292.833 309.5,294C 307.473,294.498 305.473,294.331 303.5,293.5C 301.527,294.64 299.693,295.973 298,297.5C 297.601,297.272 297.435,296.938 297.5,296.5C 312.607,282.525 319.274,265.191 317.5,244.5C 318.326,248.982 318.826,253.649 319,258.5C 319.811,251.586 319.645,244.752 318.5,238C 320.046,236.56 320.879,234.727 321,232.5C 321.667,233.167 322.333,233.833 323,234.5C 323.17,232.285 323.837,230.285 325,228.5C 325.492,229.549 325.326,230.549 324.5,231.5C 325.498,234.028 326.331,234.028 327,231.5C 331.495,233.245 331.328,234.912 326.5,236.5C 327.438,237.553 328.605,238.22 330,238.5C 331.667,237.5 333.333,236.5 335,235.5C 339.147,237.043 339.981,236.209 337.5,233C 340.57,233.992 343.57,233.659 346.5,232C 345.684,230.077 345.017,228.077 344.5,226C 344.892,224.989 345.559,224.489 346.5,224.5C 345.23,222.452 344.897,220.452 345.5,218.5C 348.026,222.34 348.859,226.674 348,231.5C 348.36,229.392 349.027,227.392 350,225.5C 350.973,227.777 351.14,229.943 350.5,232C 351.741,236.399 353.408,239.899 355.5,242.5 Z"/></g>
<g><path style="opacity:0.318" fill="#d3cfce" d="M 167.5,256.5 C 166.833,255.833 166.167,255.167 165.5,254.5C 184.167,254.5 202.833,254.5 221.5,254.5C 222.055,250.003 221.389,245.836 219.5,242C 184.5,241.333 149.5,241.333 114.5,242C 114.303,246.015 114.303,250.182 114.5,254.5C 129.167,254.5 143.833,254.5 158.5,254.5C 158.5,255.167 158.5,255.833 158.5,256.5C 143.452,256.817 128.452,256.484 113.5,255.5C 112.198,250.615 112.198,245.782 113.5,241C 121.26,239.883 129.093,239.383 137,239.5C 161.982,239.572 186.816,239.572 211.5,239.5C 219.6,237.872 223.6,241.039 223.5,249C 223.624,251.59 222.958,253.923 221.5,256C 203.503,256.5 185.503,256.667 167.5,256.5 Z"/></g>
<g><path style="opacity:1" fill="#f6f7f5" d="M 165.5,254.5 C 163.167,254.5 160.833,254.5 158.5,254.5C 143.833,254.5 129.167,254.5 114.5,254.5C 114.303,250.182 114.303,246.015 114.5,242C 149.5,241.333 184.5,241.333 219.5,242C 221.389,245.836 222.055,250.003 221.5,254.5C 202.833,254.5 184.167,254.5 165.5,254.5 Z"/></g>
<g><path style="opacity:0.247" fill="#eed2ab" d="M 158.5,254.5 C 160.833,254.5 163.167,254.5 165.5,254.5C 166.167,255.167 166.833,255.833 167.5,256.5C 164.5,256.5 161.5,256.5 158.5,256.5C 158.5,255.833 158.5,255.167 158.5,254.5 Z"/></g>
<g><path style="opacity:0.004" fill="#000000" d="M 173.5,262.5 C 174.833,263.167 174.833,263.167 173.5,262.5 Z"/></g>
<g><path style="opacity:0.399" fill="#d1cfcf" d="M 220.5,264.5 C 185.516,266.493 150.182,267.16 114.5,266.5C 114.981,270.202 115.648,273.869 116.5,277.5C 151.494,278.5 186.494,278.833 221.5,278.5C 221.5,274.167 221.5,269.833 221.5,265.5C 223.412,269.194 223.912,273.194 223,277.5C 222.5,278.667 221.667,279.5 220.5,280C 185.833,280.667 151.167,280.667 116.5,280C 114.208,277.29 113.208,274.123 113.5,270.5C 113.613,268.359 114.28,266.525 115.5,265C 150.498,264.5 185.498,264.333 220.5,264.5 Z"/></g>
<g><path style="opacity:1" fill="#f6f4f3" d="M 220.5,264.5 C 221.167,264.5 221.5,264.833 221.5,265.5C 221.5,269.833 221.5,274.167 221.5,278.5C 186.494,278.833 151.494,278.5 116.5,277.5C 115.648,273.869 114.981,270.202 114.5,266.5C 150.182,267.16 185.516,266.493 220.5,264.5 Z"/></g>
<g><path style="opacity:0.141" fill="#c0bcb7" d="M 348.5,211.5 C 352.367,218.6 354.867,226.266 356,234.5C 361.002,263.151 355.002,289.151 338,312.5C 336.629,314.041 335.129,315.375 333.5,316.5C 338.562,308.722 343.396,300.722 348,292.5C 351.394,284.73 353.894,276.73 355.5,268.5C 356.604,259.675 356.604,251.008 355.5,242.5C 354.582,231.829 352.249,221.496 348.5,211.5 Z"/></g>
<g><path style="opacity:1" fill="#e5e6e1" d="M 355.5,268.5 C 353.894,276.73 351.394,284.73 348,292.5C 343.396,300.722 338.562,308.722 333.5,316.5C 325.271,323.429 316.937,330.095 308.5,336.5C 308.5,337.167 308.167,337.5 307.5,337.5C 307.44,336.957 307.107,336.624 306.5,336.5C 297.96,340.792 288.96,343.459 279.5,344.5C 276.302,344.48 273.469,344.147 271,343.5C 270.5,344 270,344.5 269.5,345C 235.5,345.667 201.5,345.667 167.5,345C 179.637,343.255 191.97,342.588 204.5,343C 201.511,342.67 198.678,341.836 196,340.5C 183.705,341.23 171.205,341.23 158.5,340.5C 164.167,339.833 169.833,339.167 175.5,338.5C 175.808,337.692 176.308,337.025 177,336.5C 179,337.167 181,337.833 183,338.5C 187.333,337.167 191.667,337.167 196,338.5C 198.333,337.833 200.667,337.167 203,336.5C 203.308,337.308 203.808,337.975 204.5,338.5C 207.109,337.77 209.776,337.27 212.5,337C 214.597,335.39 216.93,334.223 219.5,333.5C 219.833,332.833 220.167,332.167 220.5,331.5C 218.887,330.573 217.221,329.739 215.5,329C 218.168,328.433 220.834,327.933 223.5,327.5C 223.185,329.226 223.019,330.893 223,332.5C 225.042,330.396 227.542,329.229 230.5,329C 228.941,328.02 227.274,327.187 225.5,326.5C 226.795,323.561 226.128,321.061 223.5,319C 221.231,319.374 218.898,319.374 216.5,319C 217.858,318.066 219.192,317.232 220.5,316.5C 227.508,316.666 234.508,316.5 241.5,316C 242.667,315.5 243.5,314.667 244,313.5C 244.333,314.167 244.667,314.833 245,315.5C 244.822,313.56 245.822,311.893 248,310.5C 255.353,311.286 262.686,311.619 270,311.5C 271.892,310.87 273.559,309.87 275,308.5C 281.629,309.035 287.295,306.701 292,301.5C 292.333,301.833 292.667,302.167 293,302.5C 293.637,300.697 294.803,299.364 296.5,298.5C 296.376,297.893 296.043,297.56 295.5,297.5C 295.5,297.167 295.5,296.833 295.5,296.5C 296.167,296.5 296.833,296.5 297.5,296.5C 297.435,296.938 297.601,297.272 298,297.5C 299.693,295.973 301.527,294.64 303.5,293.5C 305.473,294.331 307.473,294.498 309.5,294C 311.167,292.833 312.833,291.667 314.5,290.5C 315.715,286.021 317.215,281.688 319,277.5C 318.923,278.738 319.089,279.738 319.5,280.5C 324.693,278.238 330.026,277.905 335.5,279.5C 335.336,276.813 335.503,274.146 336,271.5C 337.329,272.494 338.662,273.494 340,274.5C 340.5,274.167 341,273.833 341.5,273.5C 340.067,271.878 338.401,270.545 336.5,269.5C 338.909,269.242 341.242,269.242 343.5,269.5C 342.019,268.52 340.685,267.353 339.5,266C 340.167,265.333 340.833,264.667 341.5,264C 338.54,264.32 335.54,264.32 332.5,264C 334.906,263.694 337.073,262.861 339,261.5C 341.307,263.094 342.64,262.428 343,259.5C 343.324,261.569 344.158,261.902 345.5,260.5C 346.739,262.007 346.405,263.174 344.5,264C 346.367,264.711 347.867,264.211 349,262.5C 349.837,264.007 351.004,264.507 352.5,264C 349.532,261.822 349.865,260.656 353.5,260.5C 353.657,259.127 353.49,257.793 353,256.5C 351.815,258.844 349.982,259.677 347.5,259C 351.574,257.46 351.907,256.127 348.5,255C 351.943,254.779 352.276,253.779 349.5,252C 350.88,250.075 352.38,248.241 354,246.5C 355.339,253.955 355.839,261.288 355.5,268.5 Z"/></g>
<g><path style="opacity:1" fill="#e1e1dd" d="M 396.5,290.5 C 391.056,308.389 382.723,324.723 371.5,339.5C 370.957,339.44 370.624,339.107 370.5,338.5C 372.748,335.672 374.748,332.672 376.5,329.5C 373.82,326.557 373.153,326.89 374.5,330.5C 373.162,332.337 371.662,334.003 370,335.5C 367.845,334.756 365.845,333.756 364,332.5C 362.437,333.102 362.604,333.935 364.5,335C 362.583,334.973 360.916,334.139 359.5,332.5C 358.833,332.833 358.167,333.167 357.5,333.5C 357.991,335.321 357.991,337.321 357.5,339.5C 355.2,337.219 352.534,335.386 349.5,334C 351.271,333.465 351.604,332.631 350.5,331.5C 348.674,331.92 346.674,331.92 344.5,331.5C 344.649,330.448 344.483,329.448 344,328.5C 341.107,330.216 338.274,331.716 335.5,333C 339.167,329.333 342.833,325.667 346.5,322C 345.906,321.536 345.239,321.369 344.5,321.5C 354.722,309.391 362.055,295.724 366.5,280.5C 365.535,284.871 364.701,289.204 364,293.5C 365.658,290.023 366.825,286.357 367.5,282.5C 369.948,282.99 371.615,282.157 372.5,280C 369.788,276.407 370.121,272.241 373.5,267.5C 373.291,266.914 372.957,266.414 372.5,266C 373.833,265.333 375.167,265.333 376.5,266C 376.043,266.414 375.709,266.914 375.5,267.5C 378.205,270.748 380.872,270.915 383.5,268C 381.913,267.138 380.246,266.471 378.5,266C 379.833,263.72 381.166,261.386 382.5,259C 381.41,256.94 379.743,255.607 377.5,255C 379.49,252.616 381.824,251.783 384.5,252.5C 380.73,255.455 381.396,256.121 386.5,254.5C 387.696,254.846 387.696,255.346 386.5,256C 387.5,256.667 388.5,256.667 389.5,256C 391.236,254.061 392.236,251.728 392.5,249C 392.355,248.228 392.022,247.561 391.5,247C 393.927,245.409 396.593,244.575 399.5,244.5C 399.575,259.307 398.242,273.974 395.5,288.5C 395.543,289.416 395.876,290.083 396.5,290.5 Z"/></g>
<g><path style="opacity:0.118" fill="#c4bbb8" d="M 377.5,172.5 C 394.619,196.607 402.953,223.607 402.5,253.5C 402.637,286.433 392.304,315.433 371.5,340.5C 371.5,340.167 371.5,339.833 371.5,339.5C 382.723,324.723 391.056,308.389 396.5,290.5C 399.862,278.067 401.196,265.4 400.5,252.5C 401.27,240.768 399.937,229.435 396.5,218.5C 395.474,212.729 393.974,207.062 392,201.5C 387.667,191.501 382.834,181.835 377.5,172.5 Z"/></g>
<g><path style="opacity:0.004" fill="#000000" d="M 152.5,283.5 C 153.833,284.167 153.833,284.167 152.5,283.5 Z"/></g>
<g><path style="opacity:0.004" fill="#000000" d="M 212.5,283.5 C 213.833,284.167 213.833,284.167 212.5,283.5 Z"/></g>
<g><path style="opacity:0.004" fill="#000000" d="M 140.5,284.5 C 141.833,285.167 141.833,285.167 140.5,284.5 Z"/></g>
<g><path style="opacity:0.004" fill="#000000" d="M 38.5,288.5 C 39.8333,289.167 39.8333,289.167 38.5,288.5 Z"/></g>
<g><path style="opacity:0.077" fill="#c9c8c8" d="M 121.5,288.5 C 154.671,288.168 187.671,288.502 220.5,289.5C 218.283,290.369 215.95,290.702 213.5,290.5C 182.833,289.833 152.167,289.167 121.5,288.5 Z"/></g>
<g><path style="opacity:0.578" fill="#e3dddd" d="M 121.5,288.5 C 152.167,289.167 182.833,289.833 213.5,290.5C 182.167,290.5 150.833,290.5 119.5,290.5C 120.188,294.584 121.188,298.584 122.5,302.5C 119.483,298.797 117.816,294.464 117.5,289.5C 118.959,289.567 120.292,289.234 121.5,288.5 Z"/></g>
<g><path style="opacity:1" fill="#f0f1ef" d="M 220.5,289.5 C 222.048,289.821 222.715,290.821 222.5,292.5C 221.799,295.563 221.132,298.73 220.5,302C 187.835,302.5 155.168,302.667 122.5,302.5C 121.188,298.584 120.188,294.584 119.5,290.5C 150.833,290.5 182.167,290.5 213.5,290.5C 215.95,290.702 218.283,290.369 220.5,289.5 Z"/></g>
<g><path style="opacity:0.004" fill="#000000" d="M 89.5,300.5 C 90.8333,301.167 90.8333,301.167 89.5,300.5 Z"/></g>
<g><path style="opacity:0.171" fill="#c2bbba" d="M 222.5,292.5 C 222.665,295.85 222.498,299.183 222,302.5C 220.915,303.293 219.748,303.96 218.5,304.5C 187.926,304.634 157.259,304.467 126.5,304C 124.942,303.79 123.609,303.29 122.5,302.5C 155.168,302.667 187.835,302.5 220.5,302C 221.132,298.73 221.799,295.563 222.5,292.5 Z"/></g>
<g><path style="opacity:0.176" fill="#c5c0be" d="M 295.5,296.5 C 295.5,296.833 295.5,297.167 295.5,297.5C 281.263,307.675 265.596,311.008 248.5,307.5C 265.626,309.545 281.293,305.878 295.5,296.5 Z"/></g>
<g><path style="opacity:0.004" fill="#000000" d="M 422.5,309.5 C 423.833,310.167 423.833,310.167 422.5,309.5 Z"/></g>
<g><path style="opacity:0.004" fill="#000000" d="M 86.5,312.5 C 87.8333,313.167 87.8333,313.167 86.5,312.5 Z"/></g>
<g><path style="opacity:0.004" fill="#000000" d="M 110.5,314.5 C 111.833,315.167 111.833,315.167 110.5,314.5 Z"/></g>
<g><path style="opacity:0.145" fill="#c9c2c1" d="M 246.5,308.5 C 245.04,310.463 243.373,312.296 241.5,314C 203.496,314.167 165.496,314.667 127.5,315.5C 129.924,321.497 133.257,326.831 137.5,331.5C 140.54,337.048 144.54,341.881 149.5,346C 189.833,346.667 230.167,346.667 270.5,346C 273.695,345.819 276.695,345.319 279.5,344.5C 288.96,343.459 297.96,340.792 306.5,336.5C 307.107,336.624 307.44,336.957 307.5,337.5C 293.736,344.608 279.07,348.274 263.5,348.5C 225.378,348.087 187.044,347.587 148.5,347C 138.269,337.601 130.603,326.434 125.5,313.5C 163.804,312.685 202.138,312.185 240.5,312C 242.405,310.579 244.405,309.412 246.5,308.5 Z"/></g>
<g><path style="opacity:1" fill="#ecece7" d="M 220.5,316.5 C 219.192,317.232 217.858,318.066 216.5,319C 218.898,319.374 221.231,319.374 223.5,319C 226.128,321.061 226.795,323.561 225.5,326.5C 227.274,327.187 228.941,328.02 230.5,329C 227.542,329.229 225.042,330.396 223,332.5C 223.019,330.893 223.185,329.226 223.5,327.5C 220.834,327.933 218.168,328.433 215.5,329C 217.221,329.739 218.887,330.573 220.5,331.5C 220.167,332.167 219.833,332.833 219.5,333.5C 216.93,334.223 214.597,335.39 212.5,337C 209.776,337.27 207.109,337.77 204.5,338.5C 203.808,337.975 203.308,337.308 203,336.5C 200.667,337.167 198.333,337.833 196,338.5C 191.667,337.167 187.333,337.167 183,338.5C 181,337.833 179,337.167 177,336.5C 176.308,337.025 175.808,337.692 175.5,338.5C 169.833,339.167 164.167,339.833 158.5,340.5C 171.205,341.23 183.705,341.23 196,340.5C 198.678,341.836 201.511,342.67 204.5,343C 191.97,342.588 179.637,343.255 167.5,345C 201.5,345.667 235.5,345.667 269.5,345C 270,344.5 270.5,344 271,343.5C 273.469,344.147 276.302,344.48 279.5,344.5C 276.695,345.319 273.695,345.819 270.5,346C 230.167,346.667 189.833,346.667 149.5,346C 144.54,341.881 140.54,337.048 137.5,331.5C 138.171,330.153 138.171,328.986 137.5,328C 138.449,327.383 139.282,327.549 140,328.5C 140.167,327.833 140.333,327.167 140.5,326.5C 140.242,324.37 139.909,322.204 139.5,320C 140.833,319.333 141.833,318.333 142.5,317C 168.469,316.815 194.469,316.649 220.5,316.5 Z"/></g>
<g><path style="opacity:0.004" fill="#000000" d="M 494.5,318.5 C 495.833,319.167 495.833,319.167 494.5,318.5 Z"/></g>
<g><path style="opacity:1" fill="#f6f5f3" d="M 295.5,297.5 C 296.043,297.56 296.376,297.893 296.5,298.5C 294.803,299.364 293.637,300.697 293,302.5C 292.667,302.167 292.333,301.833 292,301.5C 287.295,306.701 281.629,309.035 275,308.5C 273.559,309.87 271.892,310.87 270,311.5C 262.686,311.619 255.353,311.286 248,310.5C 245.822,311.893 244.822,313.56 245,315.5C 244.667,314.833 244.333,314.167 244,313.5C 243.5,314.667 242.667,315.5 241.5,316C 234.508,316.5 227.508,316.666 220.5,316.5C 194.469,316.649 168.469,316.815 142.5,317C 141.833,318.333 140.833,319.333 139.5,320C 139.909,322.204 140.242,324.37 140.5,326.5C 140.333,327.167 140.167,327.833 140,328.5C 139.282,327.549 138.449,327.383 137.5,328C 138.171,328.986 138.171,330.153 137.5,331.5C 133.257,326.831 129.924,321.497 127.5,315.5C 165.496,314.667 203.496,314.167 241.5,314C 243.373,312.296 245.04,310.463 246.5,308.5C 246.842,307.662 247.508,307.328 248.5,307.5C 265.596,311.008 281.263,307.675 295.5,297.5 Z"/></g>
<g><path style="opacity:0.004" fill="#000000" d="M 110.5,322.5 C 111.833,323.167 111.833,323.167 110.5,322.5 Z"/></g>
<g><path style="opacity:0.18" fill="#bbb5b0" d="M 333.5,316.5 C 326.897,325.305 318.563,331.972 308.5,336.5C 316.937,330.095 325.271,323.429 333.5,316.5 Z"/></g>
<g><path style="opacity:0.004" fill="#000000" d="M 446.5,344.5 C 447.833,345.167 447.833,345.167 446.5,344.5 Z"/></g>
<g><path style="opacity:0.004" fill="#000000" d="M 17.5,345.5 C 18.8333,346.167 18.8333,346.167 17.5,345.5 Z"/></g>
<g><path style="opacity:0.004" fill="#000000" d="M 485.5,345.5 C 486.833,346.167 486.833,346.167 485.5,345.5 Z"/></g>
<g><path style="opacity:0.004" fill="#000000" d="M 491.5,354.5 C 492.833,355.167 492.833,355.167 491.5,354.5 Z"/></g>
<g><path style="opacity:0.004" fill="#000000" d="M 137.5,355.5 C 138.833,356.167 138.833,356.167 137.5,355.5 Z"/></g>
<g><path style="opacity:0.089" fill="#d9d8d7" d="M 287.5,356.5 C 285.123,357.887 282.457,358.721 279.5,359C 242.167,359.667 204.833,359.667 167.5,359C 166.944,358.617 166.611,358.117 166.5,357.5C 189.066,357.733 211.732,358.067 234.5,358.5C 252.208,358.647 269.875,357.98 287.5,356.5 Z"/></g>
<g><path style="opacity:0.925" fill="#faf9f8" d="M 267.5,361.5 C 232.22,361.408 197.22,361.408 162.5,361.5C 160.952,361.179 160.285,360.179 160.5,358.5C 162.565,358.483 164.565,358.15 166.5,357.5C 166.611,358.117 166.944,358.617 167.5,359C 204.833,359.667 242.167,359.667 279.5,359C 282.457,358.721 285.123,357.887 287.5,356.5C 287.5,355.833 287.833,355.5 288.5,355.5C 289.097,356.139 289.93,356.472 291,356.5C 293.526,355.936 296.026,355.269 298.5,354.5C 301.042,355.335 300.875,356.001 298,356.5C 288.065,359.577 277.898,361.244 267.5,361.5 Z"/></g>
<g><path style="opacity:1" fill="#e6e7e4" d="M 267.5,361.5 C 257.013,362.494 246.346,362.828 235.5,362.5C 235.5,363.5 235.5,364.5 235.5,365.5C 232.664,365.202 232.164,365.869 234,367.5C 234.718,366.549 235.551,366.383 236.5,367C 235.853,368.609 235.02,370.109 234,371.5C 232.934,368.008 230.767,367.008 227.5,368.5C 228.025,369.192 228.692,369.692 229.5,370C 224.659,371.797 219.993,373.797 215.5,376C 217.995,376.157 220.328,376.324 222.5,376.5C 216.705,376.574 211.538,378.241 207,381.5C 205.816,379.346 204.65,379.68 203.5,382.5C 205.49,383.498 207.49,384.498 209.5,385.5C 211.711,384.877 213.711,383.877 215.5,382.5C 217.743,381.526 220.076,381.192 222.5,381.5C 222.67,382.822 222.337,383.989 221.5,385C 219.231,385.758 217.064,385.591 215,384.5C 214.5,385 214,385.5 213.5,386C 217.826,386.935 222.493,387.601 227.5,388C 222.167,388.667 222.167,389.333 227.5,390C 226.207,390.49 224.873,390.657 223.5,390.5C 215.162,389.11 207.162,386.61 199.5,383C 188.796,377.984 178.462,372.484 168.5,366.5C 165.911,365.581 163.911,363.914 162.5,361.5C 197.22,361.408 232.22,361.408 267.5,361.5 Z"/></g>
<g><path style="opacity:1" fill="#dededa" d="M 344.5,321.5 C 345.239,321.369 345.906,321.536 346.5,322C 342.833,325.667 339.167,329.333 335.5,333C 338.274,331.716 341.107,330.216 344,328.5C 344.483,329.448 344.649,330.448 344.5,331.5C 346.674,331.92 348.674,331.92 350.5,331.5C 351.604,332.631 351.271,333.465 349.5,334C 352.534,335.386 355.2,337.219 357.5,339.5C 357.991,337.321 357.991,335.321 357.5,333.5C 358.167,333.167 358.833,332.833 359.5,332.5C 360.916,334.139 362.583,334.973 364.5,335C 362.604,333.935 362.437,333.102 364,332.5C 365.845,333.756 367.845,334.756 370,335.5C 371.662,334.003 373.162,332.337 374.5,330.5C 373.153,326.89 373.82,326.557 376.5,329.5C 374.748,332.672 372.748,335.672 370.5,338.5C 370.624,339.107 370.957,339.44 371.5,339.5C 371.5,339.833 371.5,340.167 371.5,340.5C 367.735,345.441 363.735,350.274 359.5,355C 354.017,359.906 348.351,364.572 342.5,369C 340.423,370.705 338.09,371.872 335.5,372.5C 328.421,375.874 321.421,379.541 314.5,383.5C 284.7,394.742 254.367,397.075 223.5,390.5C 224.873,390.657 226.207,390.49 227.5,390C 222.167,389.333 222.167,388.667 227.5,388C 222.493,387.601 217.826,386.935 213.5,386C 214,385.5 214.5,385 215,384.5C 217.064,385.591 219.231,385.758 221.5,385C 222.337,383.989 222.67,382.822 222.5,381.5C 220.076,381.192 217.743,381.526 215.5,382.5C 213.711,383.877 211.711,384.877 209.5,385.5C 207.49,384.498 205.49,383.498 203.5,382.5C 204.65,379.68 205.816,379.346 207,381.5C 211.538,378.241 216.705,376.574 222.5,376.5C 220.328,376.324 217.995,376.157 215.5,376C 219.993,373.797 224.659,371.797 229.5,370C 228.692,369.692 228.025,369.192 227.5,368.5C 230.767,367.008 232.934,368.008 234,371.5C 235.02,370.109 235.853,368.609 236.5,367C 235.551,366.383 234.718,366.549 234,367.5C 232.164,365.869 232.664,365.202 235.5,365.5C 235.5,364.5 235.5,363.5 235.5,362.5C 246.346,362.828 257.013,362.494 267.5,361.5C 277.898,361.244 288.065,359.577 298,356.5C 300.875,356.001 301.042,355.335 298.5,354.5C 296.026,355.269 293.526,355.936 291,356.5C 289.93,356.472 289.097,356.139 288.5,355.5C 310.741,350.699 329.408,339.365 344.5,321.5 Z"/></g>
<g><path style="opacity:0.102" fill="#b9b1ad" d="M 335.5,372.5 C 329.254,377.458 322.254,381.124 314.5,383.5C 321.421,379.541 328.421,375.874 335.5,372.5 Z"/></g>
<g><path style="opacity:0.004" fill="#000000" d="M 110.5,385.5 C 111.833,386.167 111.833,386.167 110.5,385.5 Z"/></g>
<g><path style="opacity:0.106" fill="#b6aba9" d="M 168.5,366.5 C 178.462,372.484 188.796,377.984 199.5,383C 207.162,386.61 215.162,389.11 223.5,390.5C 254.367,397.075 284.7,394.742 314.5,383.5C 304.142,388.674 293.142,392.174 281.5,394C 239.76,400.627 202.093,391.461 168.5,366.5 Z"/></g>
<g><path style="opacity:0.004" fill="#000000" d="M 269.5,398.5 C 270.833,399.167 270.833,399.167 269.5,398.5 Z"/></g>
<g><path style="opacity:0.004" fill="#000000" d="M 71.5,405.5 C 72.8333,406.167 72.8333,406.167 71.5,405.5 Z"/></g>
<g><path style="opacity:0.004" fill="#000000" d="M 338.5,431.5 C 339.833,432.167 339.833,432.167 338.5,431.5 Z"/></g>
<g><path style="opacity:0.004" fill="#000000" d="M 182.5,432.5 C 183.833,433.167 183.833,433.167 182.5,432.5 Z"/></g>
<g><path style="opacity:0.004" fill="#000000" d="M 35.5,451.5 C 36.8333,452.167 36.8333,452.167 35.5,451.5 Z"/></g>
<g><path style="opacity:0.004" fill="#000000" d="M 494.5,459.5 C 495.833,460.167 495.833,460.167 494.5,459.5 Z"/></g>
<g><path style="opacity:0.004" fill="#000000" d="M 251.5,468.5 C 252.833,469.167 252.833,469.167 251.5,468.5 Z"/></g>
<g><path style="opacity:0.004" fill="#000000" d="M 26.5,469.5 C 27.8333,470.167 27.8333,470.167 26.5,469.5 Z"/></g>
<g><path style="opacity:0.004" fill="#000000" d="M 266.5,485.5 C 267.833,486.167 267.833,486.167 266.5,485.5 Z"/></g>
<g><path style="opacity:0.004" fill="#000000" d="M 5.5,490.5 C 6.83333,491.167 6.83333,491.167 5.5,490.5 Z"/></g>
<g><path style="opacity:0.004" fill="#000000" d="M 143.5,491.5 C 144.833,492.167 144.833,492.167 143.5,491.5 Z"/></g>
</svg>
